Coordinates
version=1
nRows=4
nColumns=124
inDegrees=yes

Units are S.I. units (second, meters, Newtons, ...)
If the header above contains a line with 'inDegrees', this indicates whether rotational values are in degrees (yes) or radians (no).

endheader 
time	pelvis_tilt	pelvis_list	pelvis_rotation	pelvis_tx	pelvis_ty	pelvis_tz	hip_flexion_l	hip_adduction_l	hip_rotation_l	hip_flexion_r	hip_adduction_r	hip_rotation_r	knee_angle_l	knee_angle_r	ankle_angle_l	ankle_angle_r	subtalar_angle_l	subtalar_angle_r	mtp_angle_l	mtp_angle_r	lumbar_extension	lumbar_bending	lumbar_rotation	arm_flex_l	arm_add_l	arm_rot_l	arm_flex_r	arm_add_r	arm_rot_r	elbow_flex_l	elbow_flex_r	glut_med1_l/activation	glut_med2_l/activation	glut_med3_l/activation	glut_min1_l/activation	glut_min2_l/activation	glut_min3_l/activation	semimem_l/activation	semiten_l/activation	bifemlh_l/activation	bifemsh_l/activation	sar_l/activation	add_long_l/activation	add_brev_l/activation	add_mag1_l/activation	add_mag2_l/activation	add_mag3_l/activation	tfl_l/activation	pect_l/activation	grac_l/activation	glut_max1_l/activation	glut_max2_l/activation	glut_max3_l/activation	iliacus_l/activation	psoas_l/activation	quad_fem_l/activation	gem_l/activation	peri_l/activation	rect_fem_l/activation	vas_med_l/activation	vas_int_l/activation	vas_lat_l/activation	med_gas_l/activation	lat_gas_l/activation	soleus_l/activation	tib_post_l/activation	flex_dig_l/activation	flex_hal_l/activation	tib_ant_l/activation	per_brev_l/activation	per_long_l/activation	per_tert_l/activation	ext_dig_l/activation	ext_hal_l/activation	ercspn_l/activation	intobl_l/activation	extobl_l/activation	glut_med1_r/activation	glut_med2_r/activation	glut_med3_r/activation	glut_min1_r/activation	glut_min2_r/activation	glut_min3_r/activation	semimem_r/activation	semiten_r/activation	bifemlh_r/activation	bifemsh_r/activation	sar_r/activation	add_long_r/activation	add_brev_r/activation	add_mag1_r/activation	add_mag2_r/activation	add_mag3_r/activation	tfl_r/activation	pect_r/activation	grac_r/activation	glut_max1_r/activation	glut_max2_r/activation	glut_max3_r/activation	iliacus_r/activation	psoas_r/activation	quad_fem_r/activation	gem_r/activation	peri_r/activation	rect_fem_r/activation	vas_med_r/activation	vas_int_r/activation	vas_lat_r/activation	med_gas_r/activation	lat_gas_r/activation	soleus_r/activation	tib_post_r/activation	flex_dig_r/activation	flex_hal_r/activation	tib_ant_r/activation	per_brev_r/activation	per_long_r/activation	per_tert_r/activation	ext_dig_r/activation	ext_hal_r/activation	ercspn_r/activation	intobl_r/activation	extobl_r/activation	
          0.25881496	         -7.54956202	         -1.69956543	          5.07895405	          0.35284389	          0.92285395	          0.00308831	         15.66891759	         -0.91691890	         -1.80038139	         12.60783122	          6.14812687	          5.75297542	        -54.69947163	        -15.43771562	         12.64994498	         10.45785981	          3.81839805	         -7.95925684	          3.09374760	          5.62368146	          3.08970744	          2.32570020	         -0.55305307	         -6.23536419	        -13.45026947	         17.32122234	         -3.11876485	        -13.44994745	         18.19338945	         74.99428067	          6.05090730	          0.05000020	          0.05000020	          0.05000018	          0.05000150	          0.05000106	          0.05000070	          0.05000135	          0.05000020	          0.05000009	          0.49402370	          0.26775650	          0.15288085	          0.18384473	          0.05000158	          0.05000066	          0.05000013	          0.51609416	          0.32832472	          0.17016150	          0.05000036	          0.05000013	          0.05000009	          0.12033525	          0.13104188	          0.09699389	          0.15350595	          0.05000088	          0.05750208	          0.05000014	          0.05000013	          0.05000010	          0.05000007	          0.05000015	          0.05000001	          0.05000017	          0.05000098	          0.05000066	          0.36624771	          0.14496958	          0.05000104	          0.64129112	          0.48351292	          0.62152299	          0.10200283	          0.05747655	          0.05000134	          0.41537188	          0.31469785	          0.28502800	          0.52358205	          0.50047353	          0.45810118	          0.08502705	          0.08912978	          0.07289854	          0.05000036	          0.05000082	          0.05000031	          0.05000065	          0.05000372	          0.07740163	          0.11602446	          0.05000149	          0.05000167	          0.05000128	          0.19228440	          0.11668572	          0.09308086	          0.05000013	          0.05000013	          0.05000067	          0.05000236	          0.19856535	          0.10442490	          0.13257607	          0.12955672	          0.10287050	          0.25394552	          0.25426117	          0.09097263	          0.32872009	          0.10778008	          0.10875838	          0.05766843	          0.05001195	          0.07046324	          0.05000494	          0.05000103	          0.05000374	          0.05000020	          0.05000016	          0.05000016	
          0.28038288	         -7.55060554	         -1.20964969	          4.25092007	          0.37813925	          0.92518073	          0.00376136	         19.12508833	         -0.31629761	         -2.46104264	          9.82127271	          5.71863069	          6.68376192	        -54.37602533	        -13.32822933	         14.26624924	          9.87965403	          3.13588549	         -7.58171003	          2.27908554	          7.11295292	          2.89608959	          2.20127096	         -0.43737163	         -5.34391675	        -13.45083060	         16.93902613	         -2.00656547	        -13.44989865	         17.71246769	         68.79701081	          8.89822536	          0.05000019	          0.05000020	          0.05000019	          0.05000127	          0.05000098	          0.05000068	          0.05000063	          0.05000014	          0.05000007	          0.44100193	          0.26088167	          0.16696522	          0.18296633	          0.05000137	          0.05000058	          0.05000012	          0.46820637	          0.30993775	          0.12516823	          0.05000030	          0.05000012	          0.05000009	          0.12244918	          0.13481147	          0.12505250	          0.19569105	          0.05000094	          0.05688438	          0.05000029	          0.05000027	          0.05000021	          0.05000007	          0.05000015	          0.05000002	          0.05000018	          0.05000104	          0.05000071	          0.38841363	          0.17511390	          0.05097738	          0.61526041	          0.46290911	          0.57433560	          0.09905122	          0.06012263	          0.05751154	          0.37463365	          0.28516100	          0.26851398	          0.49019721	          0.48017257	          0.44812993	          0.07865103	          0.07592753	          0.06450062	          0.05000046	          0.05000112	          0.05000029	          0.05000058	          0.05000346	          0.05693772	          0.09385389	          0.06985130	          0.05000153	          0.05000125	          0.17052231	          0.10248748	          0.07360810	          0.05000016	          0.05000016	          0.05000068	          0.05000290	          0.23755529	          0.10771327	          0.10759901	          0.10438175	          0.08472086	          0.29809961	          0.31139113	          0.08368528	          0.33229668	          0.10971129	          0.10123509	          0.05000071	          0.05010515	          0.07934168	          0.05000533	          0.05000157	          0.05000396	          0.05000017	          0.05000019	          0.05000016	
          0.30195079	         -7.54960851	         -0.72288346	          3.36388371	          0.40346823	          0.92657470	          0.00438589	         22.42519581	          0.20108282	         -3.10049989	          7.02381041	          5.20225838	          7.53280248	        -53.35893329	        -11.17294018	         15.40854671	          9.32346203	          2.47193898	         -7.19059223	          1.66470843	          8.61962843	          2.71570378	          2.07591983	         -0.31749612	         -4.35684768	        -13.45108421	         16.70417541	         -1.14720704	        -13.44986829	         16.63302356	         62.16011725	         12.72963812	          0.05000018	          0.05000021	          0.05000021	          0.05000114	          0.05000095	          0.05000070	          0.05000027	          0.05000012	          0.05000006	          0.33189223	          0.28189462	          0.18948142	          0.17143682	          0.05000113	          0.05000051	          0.05000012	          0.42338648	          0.28965647	          0.09207193	          0.05000027	          0.05000012	          0.05000009	          0.13691907	          0.14947747	          0.15498425	          0.23395199	          0.05000100	          0.05000454	          0.05000043	          0.05000041	          0.05000029	          0.05000009	          0.05000019	          0.05000003	          0.05000026	          0.05000135	          0.05000096	          0.40220280	          0.18358741	          0.06209188	          0.53708791	          0.44621882	          0.51185401	          0.09513999	          0.06172593	          0.06753593	          0.33239769	          0.25441812	          0.24590418	          0.45135115	          0.44503862	          0.42330504	          0.07146573	          0.06283623	          0.05607952	          0.05000063	          0.05000155	          0.05000029	          0.05000056	          0.05000290	          0.05000572	          0.06905841	          0.14947258	          0.05000149	          0.05000131	          0.14597159	          0.08915911	          0.05416769	          0.05000020	          0.05000020	          0.05000071	          0.05000359	          0.26587551	          0.09240692	          0.08617122	          0.08370862	          0.07007240	          0.34331118	          0.37073481	          0.07579706	          0.33820923	          0.11949005	          0.09831678	          0.05000116	          0.05408398	          0.08219188	          0.05000655	          0.05000197	          0.05000475	          0.05000016	          0.05000020	          0.05000016	
          0.32351870	         -7.54765262	         -0.24336904	          2.42912764	          0.42899299	          0.92697304	          0.00495460	         25.43824877	          0.63007925	         -3.71454683	          4.24581500	          4.61033569	          8.29068615	        -51.49292245	         -9.05082089	         15.98820247	          8.80764490	          1.87666920	         -6.77934927	          1.21536992	         10.14533640	          2.55788992	          1.95034273	         -0.19548802	         -3.31783382	        -13.45059934	         16.65449381	         -0.67714965	        -13.44980245	         15.10214303	         55.19218720	         17.77197092	          0.05000018	          0.05000022	          0.05000022	          0.05000103	          0.05000089	          0.05000069	          0.05000013	          0.05000012	          0.05000006	          0.24413529	          0.31476661	          0.22124581	          0.14289462	          0.05000110	          0.05000048	          0.05000012	          0.38257795	          0.26769722	          0.06772697	          0.05000026	          0.05000012	          0.05000010	          0.16230571	          0.17424774	          0.19118400	          0.25513237	          0.05000099	          0.05000054	          0.05000034	          0.05000031	          0.05000020	          0.05000013	          0.05000027	          0.05000006	          0.05000040	          0.05000191	          0.05000140	          0.40622453	          0.17980189	          0.07831155	          0.43192367	          0.43793184	          0.43315350	          0.09226498	          0.06930183	          0.07112762	          0.30279840	          0.22927359	          0.22502082	          0.43081599	          0.42776015	          0.41037383	          0.06160926	          0.05043739	          0.05000486	          0.05000080	          0.05000257	          0.05000030	          0.05000057	          0.05000248	          0.05000584	          0.05080124	          0.21475707	          0.05000156	          0.05000146	          0.12336217	          0.07667642	          0.05000378	          0.05000028	          0.05000027	          0.05000074	          0.05000437	          0.29073664	          0.06797437	          0.06339229	          0.06158073	          0.05154943	          0.38907968	          0.43141005	          0.06951026	          0.34661032	          0.13773217	          0.10362537	          0.05000125	          0.05703601	          0.08042687	          0.05000876	          0.05000250	          0.05000623	          0.05000016	          0.05000020	          0.05000017	
